<svg width="164" height="74" viewBox="0 0 164 74" fill="none" xmlns="http://www.w3.org/2000/svg">
<path d="M50.816 51.0459V24.6219H54.344V51.0459H50.816ZM67.052 51.0459L58.34 39.3459H62.48L71.336 51.0459H67.052ZM53.012 41.5419V38.4099H60.068C61.172 38.4099 62.12 38.1819 62.912 37.7259C63.704 37.2699 64.316 36.6459 64.748 35.8539C65.18 35.0379 65.396 34.1139 65.396 33.0819C65.396 32.0499 65.18 31.1379 64.748 30.3459C64.316 29.5299 63.704 28.8939 62.912 28.4379C62.12 27.9579 61.172 27.7179 60.068 27.7179H53.012V24.6219H59.42C61.34 24.6219 63.02 24.9099 64.46 25.4859C65.9 26.0619 67.016 26.9499 67.808 28.1499C68.6 29.3499 68.996 30.8979 68.996 32.7939V33.3699C68.996 35.2659 68.588 36.8139 67.772 38.0139C66.98 39.2139 65.864 40.1019 64.424 40.6779C63.008 41.2539 61.34 41.5419 59.42 41.5419H53.012ZM83.3395 51.6939C81.6595 51.6939 80.2075 51.4059 78.9835 50.8299C77.7595 50.2539 76.7635 49.4979 75.9955 48.5619C75.2275 47.6019 74.6515 46.5339 74.2675 45.3579C73.9075 44.1819 73.7275 42.9819 73.7275 41.7579V41.1099C73.7275 39.8619 73.9075 38.6499 74.2675 37.4739C74.6515 36.2979 75.2275 35.2419 75.9955 34.3059C76.7635 33.3459 77.7355 32.5899 78.9115 32.0379C80.1115 31.4619 81.5155 31.1739 83.1235 31.1739C85.2115 31.1739 86.9275 31.6299 88.2715 32.5419C89.6395 33.4299 90.6475 34.5819 91.2955 35.9979C91.9675 37.4139 92.3035 38.9259 92.3035 40.5339V42.0819H75.2395V39.4899H89.7835L88.9915 40.8939C88.9915 39.5259 88.7755 38.3499 88.3435 37.3659C87.9115 36.3579 87.2635 35.5779 86.3995 35.0259C85.5355 34.4739 84.4435 34.1979 83.1235 34.1979C81.7555 34.1979 80.6155 34.5099 79.7035 35.1339C78.8155 35.7579 78.1435 36.6099 77.6875 37.6899C77.2555 38.7699 77.0395 40.0179 77.0395 41.4339C77.0395 42.8019 77.2555 44.0379 77.6875 45.1419C78.1435 46.2219 78.8395 47.0859 79.7755 47.7339C80.7115 48.3579 81.8995 48.6699 83.3395 48.6699C84.8515 48.6699 86.0755 48.3339 87.0115 47.6619C87.9715 46.9899 88.5475 46.2099 88.7395 45.3219H91.9795C91.7155 46.6419 91.1875 47.7819 90.3955 48.7419C89.6035 49.7019 88.6075 50.4339 87.4075 50.9379C86.2075 51.4419 84.8515 51.6939 83.3395 51.6939ZM108.838 51.0459V45.2859H108.262V38.6259C108.262 37.3059 107.914 36.3099 107.218 35.6379C106.546 34.9659 105.55 34.6299 104.23 34.6299C103.486 34.6299 102.718 34.6419 101.926 34.6659C101.134 34.6899 100.378 34.7139 99.6584 34.7379C98.9384 34.7619 98.3144 34.7979 97.7864 34.8459V31.8219C98.3144 31.7739 98.8664 31.7379 99.4424 31.7139C100.042 31.6659 100.654 31.6419 101.278 31.6419C101.902 31.6179 102.502 31.6059 103.078 31.6059C105.046 31.6059 106.654 31.8459 107.902 32.3259C109.15 32.7819 110.074 33.5379 110.674 34.5939C111.274 35.6499 111.574 37.0779 111.574 38.8779V51.0459H108.838ZM102.538 51.5499C101.098 51.5499 99.8504 51.3099 98.7944 50.8299C97.7624 50.3259 96.9584 49.6059 96.3824 48.6699C95.8304 47.7339 95.5544 46.6059 95.5544 45.2859C95.5544 43.9179 95.8544 42.7779 96.4544 41.8659C97.0784 40.9539 97.9784 40.2699 99.1544 39.8139C100.33 39.3339 101.746 39.0939 103.402 39.0939H108.622V41.6859H103.258C101.866 41.6859 100.798 42.0219 100.054 42.6939C99.3104 43.3659 98.9384 44.2299 98.9384 45.2859C98.9384 46.3419 99.3104 47.1939 100.054 47.8419C100.798 48.4899 101.866 48.8139 103.258 48.8139C104.074 48.8139 104.854 48.6699 105.598 48.3819C106.342 48.0699 106.954 47.5659 107.434 46.8699C107.938 46.1499 108.214 45.1659 108.262 43.9179L109.198 45.2859C109.078 46.6539 108.742 47.8059 108.19 48.7419C107.662 49.6539 106.918 50.3499 105.958 50.8299C105.022 51.3099 103.882 51.5499 102.538 51.5499ZM118.133 51.0459V24.7659H121.589V51.0459H118.133ZM115.469 27.5019V24.7659H121.589V27.5019H115.469ZM135.706 51.2619C134.266 51.2619 133.018 51.0579 131.962 50.6499C130.93 50.2419 130.126 49.5459 129.55 48.5619C128.998 47.5539 128.722 46.1979 128.722 44.4939V25.9899H132.034V44.9259C132.034 45.9579 132.31 46.7619 132.862 47.3379C133.438 47.8899 134.242 48.1659 135.274 48.1659H138.658V51.2619H135.706ZM125.41 34.4139V31.8219H138.658V34.4139H125.41ZM142.25 58.5339V55.4379H145.022C145.838 55.4379 146.522 55.3299 147.074 55.1139C147.65 54.9219 148.118 54.5859 148.478 54.1059C148.862 53.6259 149.174 52.9899 149.414 52.1979L155.462 31.8219H158.846L152.438 53.0979C152.054 54.3699 151.514 55.4019 150.818 56.1939C150.122 57.0099 149.27 57.5979 148.262 57.9579C147.278 58.3419 146.126 58.5339 144.806 58.5339H142.25ZM148.118 50.6139V47.7339H152.294V50.6139H148.118ZM147.758 50.6139L140.882 31.8219H144.41L150.998 50.6139H147.758Z" fill="#C1FDDA"/>
<g clip-path="url(#clip0_1_251)">
<path fill-rule="evenodd" clip-rule="evenodd" d="M19.35 19.7938C19.9703 19.3286 20.7247 19.0771 21.5 19.0771C22.2753 19.0771 23.0297 19.3286 23.65 19.7938L36.1917 29.2001C36.6367 29.5338 36.9979 29.9667 37.2467 30.4642C37.4955 30.9618 37.625 31.5104 37.625 32.0667V49.0876C37.625 50.0379 37.2475 50.9494 36.5755 51.6214C35.9035 52.2934 34.992 52.6709 34.0417 52.6709H25.2625C24.7398 52.6709 24.2385 52.4633 23.8689 52.0937C23.4993 51.7241 23.2917 51.2228 23.2917 50.7001V40.1292C23.2917 39.6541 23.1029 39.1983 22.7669 38.8623C22.4309 38.5263 21.9752 38.3376 21.5 38.3376C21.0248 38.3376 20.5691 38.5263 20.2331 38.8623C19.8971 39.1983 19.7083 39.6541 19.7083 40.1292V50.7001C19.7083 50.9589 19.6574 51.2152 19.5583 51.4543C19.4593 51.6934 19.3141 51.9106 19.1311 52.0937C18.9481 52.2767 18.7308 52.4218 18.4917 52.5209C18.2526 52.6199 17.9963 52.6709 17.7375 52.6709H8.95833C8.00797 52.6709 7.09654 52.2934 6.42453 51.6214C5.75253 50.9494 5.375 50.0379 5.375 49.0876V32.0667C5.375 31.5104 5.50452 30.9618 5.7533 30.4642C6.00209 29.9667 6.3633 29.5338 6.80833 29.2001L19.35 19.7938ZM21.5 22.6605L8.95833 32.0667V49.0876H16.125V40.1292C16.125 38.7037 16.6913 37.3365 17.6993 36.3285C18.7073 35.3205 20.0745 34.7542 21.5 34.7542C22.9255 34.7542 24.2927 35.3205 25.3007 36.3285C26.3087 37.3365 26.875 38.7037 26.875 40.1292V49.0876H34.0417V32.0667L21.5 22.6605Z" fill="#C1FDDA"/>
</g>
<defs>
<clipPath id="clip0_1_251">
<rect width="43" height="43" fill="white" transform="translate(0 15.0459)"/>
</clipPath>
</defs>
</svg>
