<svg width="631" height="438" viewBox="0 0 631 438" fill="none" xmlns="http://www.w3.org/2000/svg">
<g opacity="0.15">
<path d="M160.425 136.066L136.055 133.407C91.62 128.56 48.9848 152.366 29.7985 192.738C20.5685 212.16 17.5219 233.947 21.0704 255.155L22.9521 266.402C33.0174 326.561 80.5508 373.469 140.837 382.737L244.88 398.733C295.403 406.5 347.083 400.624 394.573 381.713L521.908 331.006C574.995 309.866 609.265 257.859 607.748 200.737C606.242 144.063 569.817 94.2357 516.271 75.6052L462.009 56.7256C399.938 35.1289 331.069 48.0749 281.078 90.7373L266.129 103.495C236.886 128.45 198.642 140.234 160.425 136.066Z" stroke="url(#paint0_linear_6_184)" stroke-width="5"/>
<path d="M186.622 150.541L166.403 148.333C129.44 144.298 93.9739 164.104 78.0215 197.691C70.3528 213.836 67.8222 231.946 70.7712 249.576L72.3376 258.941C80.7092 308.987 120.249 348.014 170.401 355.73L256.822 369.027C298.843 375.493 341.829 370.605 381.326 354.87L487.122 312.724C531.282 295.131 559.785 251.867 558.521 204.348C557.268 157.207 526.974 115.761 482.438 100.256L437.36 84.5614C385.753 66.5943 328.488 77.3605 286.931 112.843L274.501 123.456C250.193 144.21 218.396 154.011 186.622 150.541Z" stroke="url(#paint1_linear_6_184)" stroke-width="4"/>
<path d="M214.697 171.597L197.851 169.766C167.416 166.457 138.216 182.753 125.053 210.393C118.705 223.724 116.608 238.684 119.046 253.247L120.332 260.924C127.229 302.114 159.786 334.224 201.067 340.552L272.696 351.533C307.315 356.84 342.723 352.815 375.267 339.874L462.851 305.047C499.213 290.588 522.693 254.979 521.659 215.861C520.632 177.034 495.666 142.902 458.974 130.164L421.637 117.203C379.046 102.417 331.811 111.292 297.493 140.528L287.237 149.265C267.158 166.37 240.919 174.448 214.697 171.597Z" stroke="url(#paint2_linear_6_184)" stroke-width="3"/>
<path d="M237.838 194.161L225.622 192.825C203.198 190.373 181.682 202.391 172.011 222.771C167.368 232.556 165.836 243.531 167.622 254.214L168.573 259.903C173.651 290.269 197.638 313.95 228.066 318.638L280.376 326.697C305.864 330.623 331.938 327.658 355.893 318.109L419.956 292.572C446.745 281.892 464.034 255.642 463.266 226.813C462.504 198.218 444.132 173.075 417.12 163.662L389.828 154.151C358.545 143.249 323.826 149.778 298.64 171.298L291.105 177.737C276.374 190.324 257.099 196.267 237.838 194.161Z" stroke="url(#paint3_linear_6_184)" stroke-width="2"/>
<path d="M267.953 214.802L259.8 213.91C244.834 212.274 230.475 220.295 224.021 233.896C220.921 240.427 219.899 247.751 221.091 254.881L221.726 258.678C225.115 278.944 241.124 294.749 261.431 297.877L296.342 303.256C313.353 305.876 330.754 303.897 346.742 297.524L389.497 280.481C407.376 273.354 418.914 255.834 418.402 236.594C417.893 217.51 405.632 200.73 387.604 194.447L369.39 188.1C348.512 180.824 325.341 185.181 308.532 199.544L303.503 203.841C293.672 212.241 280.808 216.208 267.953 214.802Z" stroke="url(#paint4_linear_6_184)" stroke-width="1.9"/>
</g>
<defs>
<linearGradient id="paint0_linear_6_184" x1="297.635" y1="27.8623" x2="333.365" y2="409.536" gradientUnits="userSpaceOnUse">
<stop stop-color="#EEEEEE"/>
<stop offset="0.14" stop-color="#E1E1E1"/>
<stop offset="1" stop-color="#9E9E9E"/>
</linearGradient>
<linearGradient id="paint1_linear_6_184" x1="300.695" y1="60.5436" x2="330.415" y2="378.021" gradientUnits="userSpaceOnUse">
<stop stop-color="#EEEEEE"/>
<stop offset="0.14" stop-color="#E1E1E1"/>
<stop offset="1" stop-color="#9E9E9E"/>
</linearGradient>
<linearGradient id="paint2_linear_6_184" x1="308.86" y1="97.4579" x2="333.335" y2="358.91" gradientUnits="userSpaceOnUse">
<stop stop-color="#EEEEEE"/>
<stop offset="0.14" stop-color="#E1E1E1"/>
<stop offset="1" stop-color="#9E9E9E"/>
</linearGradient>
<linearGradient id="paint3_linear_6_184" x1="306.982" y1="139.572" x2="325.01" y2="332.16" gradientUnits="userSpaceOnUse">
<stop stop-color="#EEEEEE"/>
<stop offset="0.14" stop-color="#E1E1E1"/>
<stop offset="1" stop-color="#9E9E9E"/>
</linearGradient>
<linearGradient id="paint4_linear_6_184" x1="314.099" y1="178.37" x2="326.131" y2="306.902" gradientUnits="userSpaceOnUse">
<stop stop-color="#EEEEEE"/>
<stop offset="0.14" stop-color="#E1E1E1"/>
<stop offset="1" stop-color="#9E9E9E"/>
</linearGradient>
</defs>
</svg>
